<svg id="Layer_1" data-name="Layer 1" xmlns="http://www.w3.org/2000/svg" viewBox="0 0 911.473 884.141"><defs><style>.cls-1{fill:#ffb53f;}.cls-2{fill:#44007f;}.cls-3{fill:#94cbff;}</style></defs><title>logo_01</title><rect class="cls-1" width="911.473" height="911.473"/><path class="cls-2" d="M587.134,580.85l20.022,37.228H479.308L460.8,580.85l-17.49-35.2-1.4-2.8-12.738-25.627h-17.22V618.078H304.336V559.989c0-14.729-.65-29.024,5.631-42.765a62.649,62.649,0,0,1,31.6-31.231c12.292-5.428,25.22-4.508,38.528-4.873q21.138-.569,42.3-.745c22.12-.176,45.175,2.234,66.875-1.936a88.718,88.718,0,0,0,51.28-143.971c-16.272-19.467-40.8-32.49-68.161-32.49H341.564q0,54.807-.014,109.627c2.058.013,4.116.027,6.174.027h29.037V334.468h5.05c28.036,0,56.059.23,84.081-.257,12.983-.217,24.557,4.034,34.859,11.967a57.088,57.088,0,0,1,18.519,65.454c-19.209,50.86-89.848,36.28-131.516,36.443-24.354.094-50.265-2.8-71.451,11.791-2.193,1.5-11.967,7.716-11.967,10.559V266.1c0-.149,147.058.149,159.945.149,36.592.068,70.151,9.611,97,35.725a126.066,126.066,0,0,1,38.338,89.348c.014.487.027.961.027,1.448,0,.2-.013.406-.013.609.04.244-.731,16.151-1.394,18.249A125.64,125.64,0,0,1,586.9,448.183a127.284,127.284,0,0,1-44.092,50.265l9.5,17.68.583,1.1,15.3,28.429Zm-41.073,0-19.521-35.2-5.808-10.478-9.95-17.951-1.678-3.019a166.486,166.486,0,0,1-36.443,3.019l1.1,2.207,12.5,25.112.541,1.11,17.5,35.2ZM485.738,392.368c.027-.338.054-.69.054-1.042a20.344,20.344,0,0,0-20.306-20.307H411.959v40.613h53.527A20.273,20.273,0,0,0,485.738,392.368ZM376.761,580.85V517.224h-35.2V580.85h35.2Z"/><path class="cls-3" d="M601.145,411.632c0,.65.014,1.286.014,1.936a132,132,0,0,1-48.844,102.56l-9.5-17.68a126.451,126.451,0,0,0,55.423-86.816c.663-2.1,1.434-18,1.394-18.249A132.855,132.855,0,0,1,601.145,411.632Z"/><path class="cls-3" d="M510.782,517.224l9.95,17.951a131.435,131.435,0,0,1-34.479,9.368l-12.5-25.112-1.1-2.207a166.486,166.486,0,0,0,36.443-3.019Z"/><polygon class="cls-3" points="441.917 542.851 443.312 545.653 429.192 545.653 412.446 545.653 411.959 545.653 411.959 532.697 411.959 517.224 420.149 517.224 423.628 517.224 429.179 517.224 441.917 542.851"/><path class="cls-3" d="M376.761,518.646v27.007a36.205,36.205,0,0,0-35.2,27.711v-56.14h35.2Z"/></svg>