<svg id="Layer_1" data-name="Layer 1" xmlns="http://www.w3.org/2000/svg" viewBox="0 0 911.473 884.141"><defs><style>.cls-1{fill:#071500;}.cls-2{fill:#940038;}.cls-3{fill:#ff153e;}</style></defs><title>logo_01</title><rect class="cls-1" width="911.473" height="911.473"/><polygon class="cls-2" points="252.434 442.488 277.803 467.857 340.527 405.133 335.501 359.421 252.434 442.488"/><polygon class="cls-2" points="296.829 486.883 322.198 512.252 349.322 485.128 344.296 439.417 296.829 486.883"/><polygon class="cls-3" points="411.278 461.225 407.509 426.941 402.483 381.229 398.714 346.946 427.807 317.852 456.901 288.759 481.457 264.202 456.089 238.833 451.875 243.047 422.781 272.141 393.688 301.234 364.594 330.328 369.62 376.039 373.389 410.323 378.415 456.035 382.185 490.318 353.091 519.412 341.224 531.279 356.023 546.077 366.593 556.648 387.211 536.03 416.304 506.937 411.278 461.225"/><polygon class="cls-3" points="478.261 483.033 474.491 448.75 469.465 403.038 465.696 368.754 494.79 339.661 494.79 339.661 523.883 310.567 525.853 308.598 523.397 306.141 500.484 283.229 489.764 293.949 489.763 293.949 460.67 323.042 431.576 352.136 436.602 397.848 440.372 432.131 445.398 477.843 449.167 512.127 420.074 541.22 390.98 570.314 385.62 575.674 392.304 582.358 410.989 601.043 425.1 586.932 454.193 557.839 483.287 528.745 478.261 483.033"/><polygon class="cls-2" points="659.039 441.783 633.67 416.414 574.336 475.748 579.362 521.46 659.039 441.783"/><polygon class="cls-2" points="614.643 397.388 589.275 372.019 565.541 395.753 570.567 441.464 614.643 397.388"/><polyline class="cls-3" points="532.679 390.563 561.772 361.469 570.248 352.993 559.678 342.423 544.879 327.624 527.652 344.851 527.652 344.851 498.559 373.944 503.585 419.656 507.354 453.94 512.38 499.651 516.149 533.935 487.056 563.028 457.962 592.122 429.884 619.938 455.253 645.307 457.628 643.194 492.082 608.74 521.175 579.647 550.269 550.553 545.243 504.841 541.474 470.558 536.448 424.846 532.678 390.562"/></svg>