<svg xmlns="http://www.w3.org/2000/svg" xmlns:xlink="http://www.w3.org/1999/xlink" viewBox="0 0 911.473 884.141"><defs><style>.cls-1,.cls-10,.cls-11,.cls-12,.cls-13,.cls-14,.cls-15,.cls-16,.cls-17,.cls-18,.cls-19,.cls-20,.cls-21,.cls-22,.cls-23,.cls-24,.cls-25,.cls-26,.cls-27,.cls-28,.cls-29,.cls-30,.cls-31,.cls-32,.cls-33,.cls-34,.cls-35,.cls-36,.cls-37,.cls-38,.cls-39,.cls-40,.cls-41,.cls-42,.cls-43,.cls-44,.cls-45,.cls-46,.cls-47,.cls-52,.cls-53,.cls-54,.cls-55,.cls-56,.cls-57,.cls-58,.cls-59,.cls-6,.cls-60,.cls-61,.cls-62,.cls-63,.cls-64,.cls-65,.cls-66,.cls-67,.cls-68,.cls-69,.cls-7,.cls-70,.cls-71,.cls-72,.cls-73,.cls-74,.cls-75,.cls-76,.cls-77,.cls-78,.cls-79,.cls-8,.cls-80,.cls-81,.cls-82,.cls-83,.cls-84,.cls-85,.cls-86,.cls-87,.cls-88,.cls-89,.cls-9,.cls-90,.cls-91,.cls-92,.cls-93{fill:none;}.cls-2{isolation:isolate;}.cls-3{fill:#7e00d4;}.cls-4{fill:url(#linear-gradient);}.cls-5{clip-path:url(#clip-path);}.cls-10,.cls-11,.cls-12,.cls-13,.cls-14,.cls-15,.cls-16,.cls-17,.cls-18,.cls-19,.cls-20,.cls-21,.cls-22,.cls-23,.cls-24,.cls-25,.cls-26,.cls-27,.cls-28,.cls-29,.cls-30,.cls-31,.cls-32,.cls-33,.cls-34,.cls-35,.cls-36,.cls-37,.cls-38,.cls-39,.cls-40,.cls-41,.cls-42,.cls-43,.cls-44,.cls-45,.cls-46,.cls-47,.cls-52,.cls-53,.cls-54,.cls-55,.cls-56,.cls-57,.cls-58,.cls-59,.cls-6,.cls-60,.cls-61,.cls-62,.cls-63,.cls-64,.cls-65,.cls-66,.cls-67,.cls-68,.cls-69,.cls-7,.cls-70,.cls-71,.cls-72,.cls-73,.cls-74,.cls-75,.cls-76,.cls-77,.cls-78,.cls-79,.cls-8,.cls-80,.cls-81,.cls-82,.cls-83,.cls-84,.cls-85,.cls-86,.cls-87,.cls-88,.cls-89,.cls-9,.cls-90,.cls-91,.cls-92,.cls-93{stroke:#fff;stroke-miterlimit:10;}.cls-6{stroke-width:3.861px;}.cls-7{stroke-width:3.779px;}.cls-8{stroke-width:3.696px;}.cls-9{stroke-width:3.614px;}.cls-10{stroke-width:3.531px;}.cls-11{stroke-width:3.449px;}.cls-12{stroke-width:3.367px;}.cls-13{stroke-width:3.284px;}.cls-14{stroke-width:3.202px;}.cls-15{stroke-width:3.119px;}.cls-16{stroke-width:3.037px;}.cls-17{stroke-width:2.955px;}.cls-18{stroke-width:2.872px;}.cls-19{stroke-width:2.79px;}.cls-20{stroke-width:2.707px;}.cls-21{stroke-width:2.625px;}.cls-22{stroke-width:2.543px;}.cls-23{stroke-width:2.46px;}.cls-24{stroke-width:2.378px;}.cls-25{stroke-width:2.295px;}.cls-26{stroke-width:2.213px;}.cls-27{stroke-width:2.131px;}.cls-28{stroke-width:2.048px;}.cls-29{stroke-width:1.966px;}.cls-30{stroke-width:1.883px;}.cls-31{stroke-width:1.801px;}.cls-32{stroke-width:1.719px;}.cls-33{stroke-width:1.636px;}.cls-34{stroke-width:1.554px;}.cls-35{stroke-width:1.471px;}.cls-36{stroke-width:1.389px;}.cls-37{stroke-width:1.307px;}.cls-38{stroke-width:1.224px;}.cls-39{stroke-width:1.142px;}.cls-40{stroke-width:1.059px;}.cls-41{stroke-width:0.977px;}.cls-42{stroke-width:0.895px;}.cls-43{stroke-width:0.812px;}.cls-44{stroke-width:0.73px;}.cls-45{stroke-width:0.647px;}.cls-46{stroke-width:0.565px;}.cls-47{stroke-width:0.483px;}.cls-48,.cls-95,.cls-96{mix-blend-mode:multiply;}.cls-48{fill:url(#linear-gradient-2);}.cls-49{fill:url(#linear-gradient-3);}.cls-50{fill:url(#linear-gradient-4);}.cls-51{clip-path:url(#clip-path-2);}.cls-52{stroke-width:4.357px;}.cls-53{stroke-width:4.264px;}.cls-54{stroke-width:4.171px;}.cls-55{stroke-width:4.078px;}.cls-56{stroke-width:3.985px;}.cls-57{stroke-width:3.892px;}.cls-58{stroke-width:3.799px;}.cls-59{stroke-width:3.706px;}.cls-60{stroke-width:3.613px;}.cls-61{stroke-width:3.52px;}.cls-62{stroke-width:3.427px;}.cls-63{stroke-width:3.334px;}.cls-64{stroke-width:3.241px;}.cls-65{stroke-width:3.148px;}.cls-66{stroke-width:3.055px;}.cls-67{stroke-width:2.962px;}.cls-68{stroke-width:2.869px;}.cls-69{stroke-width:2.776px;}.cls-70{stroke-width:2.683px;}.cls-71{stroke-width:2.59px;}.cls-72{stroke-width:2.497px;}.cls-73{stroke-width:2.404px;}.cls-74{stroke-width:2.311px;}.cls-75{stroke-width:2.218px;}.cls-76{stroke-width:2.125px;}.cls-77{stroke-width:2.032px;}.cls-78{stroke-width:1.939px;}.cls-79{stroke-width:1.846px;}.cls-80{stroke-width:1.753px;}.cls-81{stroke-width:1.66px;}.cls-82{stroke-width:1.567px;}.cls-83{stroke-width:1.474px;}.cls-84{stroke-width:1.381px;}.cls-85{stroke-width:1.288px;}.cls-86{stroke-width:1.195px;}.cls-87{stroke-width:1.102px;}.cls-88{stroke-width:1.009px;}.cls-89{stroke-width:0.916px;}.cls-90{stroke-width:0.824px;}.cls-91{stroke-width:0.731px;}.cls-92{stroke-width:0.638px;}.cls-93{stroke-width:0.545px;}.cls-94{clip-path:url(#clip-path-3);}.cls-95{fill:url(#linear-gradient-5);}.cls-96{fill:url(#linear-gradient-6);}</style><linearGradient id="linear-gradient" x1="349.693" y1="429.28" x2="675.236" y2="429.28" gradientUnits="userSpaceOnUse"><stop offset="0" stop-color="#2e3192"/><stop offset="1" stop-color="#662d91"/></linearGradient><clipPath id="clip-path"><path class="cls-1" d="M486.1,224.71A157.726,157.726,0,0,1,611.466,357.649c.136.975.308,1.937.426,2.919a157.783,157.783,0,0,1-137.762,175.4c-4.33.52-8.632.811-12.914.976-.494.028-.99.045-1.486.065-.9.026-1.8.057-2.7.068-.431.006-.858.033-1.293.033-.752,0-1.5-.04-2.245-.057-51.906-1.192-93.623-43.43-93.623-95.4a94.688,94.688,0,0,1,11.141-44.665,156.982,156.982,0,0,0-20.174,97.963c.117.982.289,1.944.425,2.92A157.634,157.634,0,0,0,633.124,571.3c3.589-4.918,7.011-9.967,10.19-15.183.089-.152.185-.3.274-.452.384-.632.731-1.289,1.108-1.926a218.43,218.43,0,0,0,30.54-111.668C675.236,331.151,592.948,239.5,486.1,224.71Z"/></clipPath><linearGradient id="linear-gradient-2" x1="349.693" y1="429.28" x2="675.236" y2="429.28" gradientUnits="userSpaceOnUse"><stop offset="0.119" stop-color="#662d91"/><stop offset="0.485" stop-color="#f2edf6" stop-opacity="0.636"/><stop offset="0.651" stop-color="#fff" stop-opacity="0.4"/></linearGradient><linearGradient id="linear-gradient-3" x1="486.19" y1="436.507" x2="218.266" y2="836.071" gradientUnits="userSpaceOnUse"><stop offset="0" stop-color="#2e3192"/><stop offset="0.544" stop-color="#93278f"/></linearGradient><linearGradient id="linear-gradient-4" x1="236.236" y1="397.28" x2="613.033" y2="397.28" gradientUnits="userSpaceOnUse"><stop offset="0" stop-color="#662d91"/><stop offset="1" stop-color="#2e3192"/></linearGradient><clipPath id="clip-path-2"><path class="cls-1" d="M611.892,360.568c-.118-.982-.29-1.944-.426-2.919A157.726,157.726,0,0,0,486.1,224.71a217.931,217.931,0,0,0-62.438.218C317.643,240.456,236.236,331.743,236.236,442.07a218.478,218.478,0,0,0,42.605,129.92A157.71,157.71,0,0,1,522.887,373.552a96.055,96.055,0,0,1,12.618,15.156,94.7,94.7,0,0,1,16.1,52.948c0,50.886-39.994,92.46-90.39,95.289,4.282-.165,8.584-.456,12.914-.976a157.783,157.783,0,0,0,137.762-175.4Z"/></clipPath><clipPath id="clip-path-3"><path class="cls-1" d="M526.235,632.717A157.657,157.657,0,0,1,351.26,497.874c-.136-.976-.308-1.938-.425-2.92a156.982,156.982,0,0,1,20.174-97.963,96.083,96.083,0,0,1,151.878-23.439A157.71,157.71,0,0,0,278.841,571.99a219.437,219.437,0,0,0,354.283-.691A157.2,157.2,0,0,1,526.235,632.717Z"/></clipPath><linearGradient id="linear-gradient-5" x1="236.236" y1="397.28" x2="613.033" y2="397.28" gradientUnits="userSpaceOnUse"><stop offset="0.349" stop-color="#fff" stop-opacity="0.4"/><stop offset="0.515" stop-color="#f2edf6" stop-opacity="0.636"/><stop offset="0.881" stop-color="#662d91"/></linearGradient><linearGradient id="linear-gradient-6" x1="486.19" y1="436.507" x2="218.266" y2="836.071" xlink:href="#linear-gradient-2"/></defs><title>logo_01</title><g class="cls-2"><g id="Layer_1" data-name="Layer 1"><rect class="cls-3" width="911.473" height="911.473"/><path class="cls-4" d="M486.1,224.71A157.726,157.726,0,0,1,611.466,357.649c.136.975.308,1.937.426,2.919a157.783,157.783,0,0,1-137.762,175.4c-4.33.52-8.632.811-12.914.976-.494.028-.99.045-1.486.065-.9.026-1.8.057-2.7.068-.431.006-.858.033-1.293.033-.752,0-1.5-.04-2.245-.057-51.906-1.192-93.623-43.43-93.623-95.4a94.688,94.688,0,0,1,11.141-44.665,156.982,156.982,0,0,0-20.174,97.963c.117.982.289,1.944.425,2.92A157.634,157.634,0,0,0,633.124,571.3c3.589-4.918,7.011-9.967,10.19-15.183.089-.152.185-.3.274-.452.384-.632.731-1.289,1.108-1.926a218.43,218.43,0,0,0,30.54-111.668C675.236,331.151,592.948,239.5,486.1,224.71Z"/><g class="cls-5"><line class="cls-6" x1="1103.71" y1="521.595" x2="739.294" y2="-75.302"/><line class="cls-7" x1="1088.294" y1="531.006" x2="723.878" y2="-65.89"/><line class="cls-8" x1="1072.878" y1="540.418" x2="708.462" y2="-56.478"/><line class="cls-9" x1="1057.462" y1="549.83" x2="693.046" y2="-47.066"/><line class="cls-10" x1="1042.046" y1="559.242" x2="677.63" y2="-37.654"/><line class="cls-11" x1="1026.63" y1="568.653" x2="662.214" y2="-28.243"/><line class="cls-12" x1="1011.214" y1="578.065" x2="646.798" y2="-18.831"/><line class="cls-13" x1="995.798" y1="587.477" x2="631.381" y2="-9.419"/><line class="cls-14" x1="980.382" y1="596.889" x2="615.965" y2="-0.007"/><line class="cls-15" x1="964.966" y1="606.301" x2="600.549" y2="9.405"/><line class="cls-16" x1="949.549" y1="615.712" x2="585.133" y2="18.816"/><line class="cls-17" x1="934.133" y1="625.124" x2="569.717" y2="28.228"/><line class="cls-18" x1="918.717" y1="634.536" x2="554.301" y2="37.64"/><line class="cls-19" x1="903.301" y1="643.948" x2="538.885" y2="47.052"/><line class="cls-20" x1="887.885" y1="653.36" x2="523.469" y2="56.464"/><line class="cls-21" x1="872.469" y1="662.771" x2="508.053" y2="65.875"/><line class="cls-22" x1="857.053" y1="672.183" x2="492.637" y2="75.287"/><line class="cls-23" x1="841.637" y1="681.595" x2="477.221" y2="84.699"/><line class="cls-24" x1="826.221" y1="691.007" x2="461.805" y2="94.111"/><line class="cls-25" x1="810.805" y1="700.419" x2="446.389" y2="103.523"/><line class="cls-26" x1="795.389" y1="709.83" x2="430.973" y2="112.934"/><line class="cls-27" x1="779.973" y1="719.242" x2="415.557" y2="122.346"/><line class="cls-28" x1="764.557" y1="728.654" x2="400.141" y2="131.758"/><line class="cls-29" x1="749.141" y1="738.066" x2="384.725" y2="141.17"/><line class="cls-30" x1="733.725" y1="747.478" x2="369.308" y2="150.581"/><line class="cls-31" x1="718.309" y1="756.889" x2="353.892" y2="159.993"/><line class="cls-32" x1="702.892" y1="766.301" x2="338.476" y2="169.405"/><line class="cls-33" x1="687.476" y1="775.713" x2="323.06" y2="178.817"/><line class="cls-34" x1="672.06" y1="785.125" x2="307.644" y2="188.229"/><line class="cls-35" x1="656.644" y1="794.537" x2="292.228" y2="197.64"/><line class="cls-36" x1="641.228" y1="803.948" x2="276.812" y2="207.052"/><line class="cls-37" x1="625.812" y1="813.36" x2="261.396" y2="216.464"/><line class="cls-38" x1="610.396" y1="822.772" x2="245.98" y2="225.876"/><line class="cls-39" x1="594.98" y1="832.184" x2="230.564" y2="235.288"/><line class="cls-40" x1="579.564" y1="841.595" x2="215.148" y2="244.699"/><line class="cls-41" x1="564.148" y1="851.007" x2="199.732" y2="254.111"/><line class="cls-42" x1="548.732" y1="860.419" x2="184.316" y2="263.523"/><line class="cls-43" x1="533.316" y1="869.831" x2="168.9" y2="272.935"/><line class="cls-44" x1="517.9" y1="879.243" x2="153.484" y2="282.347"/><line class="cls-45" x1="502.484" y1="888.654" x2="138.068" y2="291.758"/><line class="cls-46" x1="487.068" y1="898.066" x2="122.651" y2="301.17"/><line class="cls-47" x1="471.652" y1="907.478" x2="107.235" y2="310.582"/></g><path class="cls-48" d="M486.1,224.71A157.726,157.726,0,0,1,611.466,357.649c.136.975.308,1.937.426,2.919a157.783,157.783,0,0,1-137.762,175.4c-4.33.52-8.632.811-12.914.976-.494.028-.99.045-1.486.065-.9.026-1.8.057-2.7.068-.431.006-.858.033-1.293.033-.752,0-1.5-.04-2.245-.057-51.906-1.192-93.623-43.43-93.623-95.4a94.688,94.688,0,0,1,11.141-44.665,156.982,156.982,0,0,0-20.174,97.963c.117.982.289,1.944.425,2.92A157.634,157.634,0,0,0,633.124,571.3c3.589-4.918,7.011-9.967,10.19-15.183.089-.152.185-.3.274-.452.384-.632.731-1.289,1.108-1.926a218.43,218.43,0,0,0,30.54-111.668C675.236,331.151,592.948,239.5,486.1,224.71Z"/><path class="cls-49" d="M526.235,632.717A157.657,157.657,0,0,1,351.26,497.874c-.136-.976-.308-1.938-.425-2.92a156.982,156.982,0,0,1,20.174-97.963,96.083,96.083,0,0,1,151.878-23.439A157.71,157.71,0,0,0,278.841,571.99a219.437,219.437,0,0,0,354.283-.691A157.2,157.2,0,0,1,526.235,632.717Z"/><path class="cls-50" d="M611.892,360.568c-.118-.982-.29-1.944-.426-2.919A157.726,157.726,0,0,0,486.1,224.71a217.931,217.931,0,0,0-62.438.218C317.643,240.456,236.236,331.743,236.236,442.07a218.478,218.478,0,0,0,42.605,129.92A157.71,157.71,0,0,1,522.887,373.552a96.055,96.055,0,0,1,12.618,15.156,94.7,94.7,0,0,1,16.1,52.948c0,50.886-39.994,92.46-90.39,95.289,4.282-.165,8.584-.456,12.914-.976a157.783,157.783,0,0,0,137.762-175.4Z"/><path class="cls-1" d="M522.887,373.552a158.017,158.017,0,0,1,12.618,15.156A96.109,96.109,0,0,0,522.887,373.552Z"/><g class="cls-51"><line class="cls-52" x1="201.427" y1="-253.171" x2="-204.491" y2="458.939"/><line class="cls-53" x1="218.472" y1="-243.455" x2="-187.446" y2="468.655"/><line class="cls-54" x1="235.517" y1="-233.739" x2="-170.4" y2="478.371"/><line class="cls-55" x1="252.562" y1="-224.023" x2="-153.355" y2="488.087"/><line class="cls-56" x1="269.608" y1="-214.307" x2="-136.31" y2="497.803"/><line class="cls-57" x1="286.653" y1="-204.591" x2="-119.265" y2="507.519"/><line class="cls-58" x1="303.698" y1="-194.874" x2="-102.22" y2="517.235"/><line class="cls-59" x1="320.743" y1="-185.158" x2="-85.175" y2="526.951"/><line class="cls-60" x1="337.788" y1="-175.442" x2="-68.13" y2="536.667"/><line class="cls-61" x1="354.833" y1="-165.726" x2="-51.085" y2="546.383"/><line class="cls-62" x1="371.878" y1="-156.01" x2="-34.04" y2="556.1"/><line class="cls-63" x1="388.923" y1="-146.294" x2="-16.994" y2="565.816"/><line class="cls-64" x1="405.968" y1="-136.578" x2="0.051" y2="575.532"/><line class="cls-65" x1="423.014" y1="-126.862" x2="17.096" y2="585.248"/><line class="cls-66" x1="440.059" y1="-117.146" x2="34.141" y2="594.964"/><line class="cls-67" x1="457.104" y1="-107.43" x2="51.186" y2="604.68"/><line class="cls-68" x1="474.149" y1="-97.714" x2="68.231" y2="614.396"/><line class="cls-69" x1="491.194" y1="-87.998" x2="85.276" y2="624.112"/><line class="cls-70" x1="508.239" y1="-78.282" x2="102.321" y2="633.828"/><line class="cls-71" x1="525.284" y1="-68.566" x2="119.366" y2="643.544"/><line class="cls-72" x1="542.329" y1="-58.849" x2="136.411" y2="653.26"/><line class="cls-73" x1="559.374" y1="-49.133" x2="153.457" y2="662.976"/><line class="cls-74" x1="576.419" y1="-39.417" x2="170.502" y2="672.692"/><line class="cls-75" x1="593.465" y1="-29.701" x2="187.547" y2="682.408"/><line class="cls-76" x1="610.51" y1="-19.985" x2="204.592" y2="692.125"/><line class="cls-77" x1="627.555" y1="-10.269" x2="221.637" y2="701.841"/><line class="cls-78" x1="644.6" y1="-0.553" x2="238.682" y2="711.557"/><line class="cls-79" x1="661.645" y1="9.163" x2="255.727" y2="721.273"/><line class="cls-80" x1="678.69" y1="18.879" x2="272.772" y2="730.989"/><line class="cls-81" x1="695.735" y1="28.595" x2="289.817" y2="740.705"/><line class="cls-82" x1="712.78" y1="38.311" x2="306.862" y2="750.421"/><line class="cls-83" x1="729.825" y1="48.027" x2="323.908" y2="760.137"/><line class="cls-84" x1="746.871" y1="57.743" x2="340.953" y2="769.853"/><line class="cls-85" x1="763.916" y1="67.46" x2="357.998" y2="779.569"/><line class="cls-86" x1="780.961" y1="77.176" x2="375.043" y2="789.285"/><line class="cls-87" x1="798.006" y1="86.892" x2="392.088" y2="799.001"/><line class="cls-88" x1="815.051" y1="96.608" x2="409.133" y2="808.717"/><line class="cls-89" x1="832.096" y1="106.324" x2="426.178" y2="818.433"/><line class="cls-90" x1="849.141" y1="116.04" x2="443.223" y2="828.15"/><line class="cls-91" x1="866.186" y1="125.756" x2="460.268" y2="837.866"/><line class="cls-92" x1="883.231" y1="135.472" x2="477.314" y2="847.582"/><line class="cls-93" x1="900.276" y1="145.188" x2="494.359" y2="857.298"/></g><g class="cls-94"><line class="cls-9" x1="-2.61" y1="868.952" x2="665.728" y2="1074.883"/><line class="cls-10" x1="2.708" y1="851.69" x2="671.047" y2="1057.622"/><line class="cls-11" x1="8.027" y1="834.429" x2="676.365" y2="1040.361"/><line class="cls-12" x1="13.346" y1="817.168" x2="681.684" y2="1023.1"/><line class="cls-13" x1="18.664" y1="799.907" x2="687.002" y2="1005.839"/><line class="cls-14" x1="23.983" y1="782.646" x2="692.321" y2="988.577"/><line class="cls-15" x1="29.301" y1="765.384" x2="697.64" y2="971.316"/><line class="cls-16" x1="34.62" y1="748.123" x2="702.958" y2="954.055"/><line class="cls-17" x1="39.939" y1="730.862" x2="708.277" y2="936.794"/><line class="cls-18" x1="45.257" y1="713.601" x2="713.595" y2="919.532"/><line class="cls-19" x1="50.576" y1="696.34" x2="718.914" y2="902.271"/><line class="cls-20" x1="55.894" y1="679.078" x2="724.233" y2="885.01"/><line class="cls-21" x1="61.213" y1="661.817" x2="729.551" y2="867.749"/><line class="cls-22" x1="66.532" y1="644.556" x2="734.87" y2="850.488"/><line class="cls-23" x1="71.85" y1="627.295" x2="740.189" y2="833.226"/><line class="cls-24" x1="77.169" y1="610.034" x2="745.507" y2="815.965"/><line class="cls-25" x1="82.487" y1="592.772" x2="750.826" y2="798.704"/><line class="cls-26" x1="87.806" y1="575.511" x2="756.144" y2="781.443"/><line class="cls-27" x1="93.125" y1="558.25" x2="761.463" y2="764.182"/><line class="cls-28" x1="98.443" y1="540.989" x2="766.782" y2="746.92"/><line class="cls-29" x1="103.762" y1="523.728" x2="772.1" y2="729.659"/><line class="cls-30" x1="109.08" y1="506.466" x2="777.419" y2="712.398"/><line class="cls-31" x1="114.399" y1="489.205" x2="782.737" y2="695.137"/><line class="cls-32" x1="119.718" y1="471.944" x2="788.056" y2="677.876"/><line class="cls-33" x1="125.036" y1="454.683" x2="793.375" y2="660.614"/><line class="cls-34" x1="130.355" y1="437.422" x2="798.693" y2="643.353"/><line class="cls-35" x1="135.673" y1="420.16" x2="804.012" y2="626.092"/><line class="cls-36" x1="140.992" y1="402.899" x2="809.33" y2="608.831"/><line class="cls-37" x1="146.311" y1="385.638" x2="814.649" y2="591.57"/><line class="cls-38" x1="151.629" y1="368.377" x2="819.968" y2="574.308"/><line class="cls-39" x1="156.948" y1="351.115" x2="825.286" y2="557.047"/><line class="cls-40" x1="162.266" y1="333.854" x2="830.605" y2="539.786"/><line class="cls-41" x1="167.585" y1="316.593" x2="835.923" y2="522.525"/><line class="cls-42" x1="172.904" y1="299.332" x2="841.242" y2="505.264"/><line class="cls-43" x1="178.222" y1="282.071" x2="846.561" y2="488.002"/><line class="cls-44" x1="183.541" y1="264.809" x2="851.879" y2="470.741"/><line class="cls-45" x1="188.859" y1="247.548" x2="857.198" y2="453.48"/><line class="cls-46" x1="194.178" y1="230.287" x2="862.516" y2="436.219"/><line class="cls-47" x1="199.497" y1="213.026" x2="867.835" y2="418.958"/></g><path class="cls-95" d="M611.892,360.568c-.118-.982-.29-1.944-.426-2.919A157.726,157.726,0,0,0,486.1,224.71a217.931,217.931,0,0,0-62.438.218C317.643,240.456,236.236,331.743,236.236,442.07a218.478,218.478,0,0,0,42.605,129.92A157.71,157.71,0,0,1,522.887,373.552a96.055,96.055,0,0,1,12.618,15.156,94.7,94.7,0,0,1,16.1,52.948c0,50.886-39.994,92.46-90.39,95.289,4.282-.165,8.584-.456,12.914-.976a157.783,157.783,0,0,0,137.762-175.4Z"/><path class="cls-96" d="M526.235,632.717A157.657,157.657,0,0,1,351.26,497.874c-.136-.976-.308-1.938-.425-2.92a156.982,156.982,0,0,1,20.174-97.963,96.083,96.083,0,0,1,151.878-23.439A157.71,157.71,0,0,0,278.841,571.99a219.437,219.437,0,0,0,354.283-.691A157.2,157.2,0,0,1,526.235,632.717Z"/></g></g></svg>